<svg xmlns="http://www.w3.org/2000/svg" version="1.1" xmlns:xlink="http://www.w3.org/1999/xlink" xmlns:svgjs="http://svgjs.dev/svgjs" width="878.96" height="847.69"><svg id="SvgjsSvg1001" xmlns="http://www.w3.org/2000/svg" viewBox="0 0 878.96 847.69"><defs><style>.b{fill:none;stroke:#000;stroke-miterlimit:10;}.c{fill:#a070a9;}.d{fill:#e8a6fa;}</style></defs><circle class="c" cx="469.46" cy="438.19" r="409.5"></circle><path class="d" d="M662.38,146.47l9.17,102.2s.01.03.01.1c-6.06,2.55-85.01,35.62-95.19,39.88l2.58,38.27c10.36-4.34,106.23-44.49,106.23-44.49l5.71,103.65s0,.04,0,.1c-7.27,3.06-107.95,45.23-107.95,45.23,1.2,43.14,8.36,299.4,8.36,299.4,0,0-296.48-295.56-316.75-315.76l-95.07,39.82c-.03-.06-.05-.1-.05-.1l-66.4-78.24,192.46-80.6,187.56,218.89-24.41-287.22,193.76-81.15Z"></path><line class="b" x1=".74" y1=".87" x2=".46" y2=".19"></line></svg><style>@media (prefers-color-scheme: light) { :root { filter: none; } }
@media (prefers-color-scheme: dark) { :root { filter: none; } }
</style></svg>