<?xml version="1.0" encoding="UTF-8"?>
<svg id="Layer_1" data-name="Layer 1" xmlns="http://www.w3.org/2000/svg" viewBox="0 0 706.5 713.69">
  <defs>
    <style>
      .cls-1 {
        fill: none;
        stroke: #000;
        stroke-miterlimit: 10;
      }

      .cls-2 {
        fill: #e8a6fa;
      }

      .cls-2, .cls-3 {
        stroke-width: 0px;
      }

      .cls-3 {
        fill: #a070a9;
      }
    </style>
  </defs>
  <circle class="cls-3" cx="299" cy="414.69" r="299"/>
  <path class="cls-2" d="M439.86,201.69l6.7,74.63s0,.02,0,.07c-4.42,1.86-62.07,26.01-69.51,29.12l1.88,27.94,77.56-32.48,4.17,75.68s0,.03,0,.08c-5.31,2.23-78.82,33.02-78.82,33.02.88,31.5,6.1,218.61,6.1,218.61,0,0-216.48-215.81-231.28-230.55l-69.42,29.07s-.04-.07-.04-.07l-48.48-57.13,140.52-58.85,136.95,159.82-17.83-209.71,141.47-59.25Z"/>
  <line class="cls-1" x1="368.78" y1=".87" x2="368.5" y2=".19"/>
</svg>